<svg width="180" height="210" viewBox="0 0 180 210" fill="none" xmlns="http://www.w3.org/2000/svg">
<path d="M165.165 60.95L180 52.4569L128.55 22.6538V39.6398L165.165 60.95Z" fill="#54E3C7"/>
<path d="M14.8352 148.668V61.1388L0 52.4569V157.371L35.1099 177.854V160.444L14.8352 148.668Z" fill="#3C9F8D"/>
<path fill-rule="evenodd" clip-rule="evenodd" d="M29.5161 69.6729V140.132L48.871 151.612V114.322L57.3626 106.963V190.843L90 210V192.827L78.3871 185.958V108.911L69.7067 101.697L78.3871 96.4209V41.215L29.5161 69.6729ZM57.3626 97.3115L48.871 103.837V75.5607L57.3626 70.4422V97.3115Z" fill="#3C9F8D"/>
<path d="M90 192.827V210L180 157.371V52.4569L165.165 60.95V148.761L90 192.827Z" fill="#155348"/>
<path fill-rule="evenodd" clip-rule="evenodd" d="M111.774 29.9299L90 17.1729V175.856L150.484 140.327V123.473L128.55 108.911V131.986L111.774 140.8V29.9299Z" fill="#155348"/>
<path d="M0 52.4569L14.8352 61.1388L90 17.1729L111.774 29.9299V12.757L90 0L0 52.4569Z" fill="#54E3C7"/>
</svg>
